<mxfile host="app.diagrams.net" modified="2023-11-24T06:40:35.438Z" agent="Mozilla/5.0 (Windows NT 10.0; Win64; x64; rv:120.0) Gecko/20100101 Firefox/120.0" etag="I12zHQwuG3O0DFPGWB_e" version="22.1.3" type="github">
  <diagram name="Page-1" id="e7e014a7-5840-1c2e-5031-d8a46d1fe8dd">
    <mxGraphModel dx="2364" dy="645" grid="1" gridSize="10" guides="1" tooltips="1" connect="1" arrows="1" fold="1" page="1" pageScale="1" pageWidth="1169" pageHeight="826" background="none" math="0" shadow="0">
      <root>
        <mxCell id="0" />
        <mxCell id="1" parent="0" />
        <mxCell id="2" value="User" style="swimlane;whiteSpace=wrap" parent="1" vertex="1">
          <mxGeometry x="-170" y="128" width="500" height="572" as="geometry" />
        </mxCell>
        <mxCell id="_ZR7o_LOtNJtk-iY4hDg-44" style="edgeStyle=orthogonalEdgeStyle;rounded=0;orthogonalLoop=1;jettySize=auto;html=1;entryX=0.5;entryY=0;entryDx=0;entryDy=0;" edge="1" parent="2" source="5" target="_ZR7o_LOtNJtk-iY4hDg-42">
          <mxGeometry relative="1" as="geometry" />
        </mxCell>
        <mxCell id="5" value="" style="ellipse;shape=startState;fillColor=#000000;strokeColor=#ff0000;" parent="2" vertex="1">
          <mxGeometry x="225" y="40" width="30" height="30" as="geometry" />
        </mxCell>
        <mxCell id="_ZR7o_LOtNJtk-iY4hDg-49" value="" style="edgeStyle=orthogonalEdgeStyle;rounded=0;orthogonalLoop=1;jettySize=auto;html=1;" edge="1" parent="2" source="_ZR7o_LOtNJtk-iY4hDg-42" target="_ZR7o_LOtNJtk-iY4hDg-46">
          <mxGeometry relative="1" as="geometry" />
        </mxCell>
        <mxCell id="_ZR7o_LOtNJtk-iY4hDg-42" value="Enters the website" style="" vertex="1" parent="2">
          <mxGeometry x="185" y="102" width="110" height="50" as="geometry" />
        </mxCell>
        <mxCell id="_ZR7o_LOtNJtk-iY4hDg-48" value="" style="edgeStyle=orthogonalEdgeStyle;rounded=0;orthogonalLoop=1;jettySize=auto;html=1;" edge="1" parent="2" source="_ZR7o_LOtNJtk-iY4hDg-45" target="_ZR7o_LOtNJtk-iY4hDg-46">
          <mxGeometry relative="1" as="geometry" />
        </mxCell>
        <mxCell id="_ZR7o_LOtNJtk-iY4hDg-53" value="(Yes)" style="edgeLabel;html=1;align=center;verticalAlign=middle;resizable=0;points=[];" vertex="1" connectable="0" parent="_ZR7o_LOtNJtk-iY4hDg-48">
          <mxGeometry x="-0.381" y="3" relative="1" as="geometry">
            <mxPoint as="offset" />
          </mxGeometry>
        </mxCell>
        <mxCell id="_ZR7o_LOtNJtk-iY4hDg-51" value="" style="edgeStyle=orthogonalEdgeStyle;rounded=0;orthogonalLoop=1;jettySize=auto;html=1;" edge="1" parent="2" source="_ZR7o_LOtNJtk-iY4hDg-45" target="_ZR7o_LOtNJtk-iY4hDg-50">
          <mxGeometry relative="1" as="geometry" />
        </mxCell>
        <mxCell id="_ZR7o_LOtNJtk-iY4hDg-52" value="(No)" style="edgeLabel;html=1;align=center;verticalAlign=middle;resizable=0;points=[];" vertex="1" connectable="0" parent="_ZR7o_LOtNJtk-iY4hDg-51">
          <mxGeometry x="-0.1556" y="-2" relative="1" as="geometry">
            <mxPoint as="offset" />
          </mxGeometry>
        </mxCell>
        <mxCell id="_ZR7o_LOtNJtk-iY4hDg-45" value="Has an account?" style="rhombus;fillColor=#ffffc0;strokeColor=#ff0000;" vertex="1" parent="2">
          <mxGeometry x="200" y="162" width="80" height="38" as="geometry" />
        </mxCell>
        <mxCell id="_ZR7o_LOtNJtk-iY4hDg-58" value="" style="edgeStyle=orthogonalEdgeStyle;rounded=0;orthogonalLoop=1;jettySize=auto;html=1;" edge="1" parent="2" source="_ZR7o_LOtNJtk-iY4hDg-46">
          <mxGeometry relative="1" as="geometry">
            <mxPoint x="240.00000000000045" y="342" as="targetPoint" />
          </mxGeometry>
        </mxCell>
        <mxCell id="_ZR7o_LOtNJtk-iY4hDg-133" style="edgeStyle=orthogonalEdgeStyle;rounded=0;orthogonalLoop=1;jettySize=auto;html=1;" edge="1" parent="2" source="_ZR7o_LOtNJtk-iY4hDg-46">
          <mxGeometry relative="1" as="geometry">
            <mxPoint x="350" y="232" as="targetPoint" />
          </mxGeometry>
        </mxCell>
        <mxCell id="_ZR7o_LOtNJtk-iY4hDg-46" value="Tries to log in" style="" vertex="1" parent="2">
          <mxGeometry x="185" y="260" width="110" height="50" as="geometry" />
        </mxCell>
        <mxCell id="_ZR7o_LOtNJtk-iY4hDg-55" value="" style="edgeStyle=orthogonalEdgeStyle;rounded=0;orthogonalLoop=1;jettySize=auto;html=1;" edge="1" parent="2" source="_ZR7o_LOtNJtk-iY4hDg-50" target="_ZR7o_LOtNJtk-iY4hDg-54">
          <mxGeometry relative="1" as="geometry" />
        </mxCell>
        <mxCell id="_ZR7o_LOtNJtk-iY4hDg-50" value="Creates an account" style="" vertex="1" parent="2">
          <mxGeometry x="360" y="157" width="110" height="50" as="geometry" />
        </mxCell>
        <mxCell id="_ZR7o_LOtNJtk-iY4hDg-54" value="Writes their &#xa;credentials&#xa;" style="" vertex="1" parent="2">
          <mxGeometry x="360" y="260" width="110" height="50" as="geometry" />
        </mxCell>
        <mxCell id="_ZR7o_LOtNJtk-iY4hDg-76" value="" style="edgeStyle=orthogonalEdgeStyle;rounded=0;orthogonalLoop=1;jettySize=auto;html=1;" edge="1" parent="2">
          <mxGeometry relative="1" as="geometry">
            <mxPoint x="200" y="361.86" as="sourcePoint" />
            <mxPoint x="90" y="282" as="targetPoint" />
          </mxGeometry>
        </mxCell>
        <mxCell id="_ZR7o_LOtNJtk-iY4hDg-77" value="&lt;div&gt;(No)&lt;/div&gt;" style="edgeLabel;html=1;align=center;verticalAlign=middle;resizable=0;points=[];" vertex="1" connectable="0" parent="_ZR7o_LOtNJtk-iY4hDg-76">
          <mxGeometry x="0.0222" y="2" relative="1" as="geometry">
            <mxPoint as="offset" />
          </mxGeometry>
        </mxCell>
        <mxCell id="_ZR7o_LOtNJtk-iY4hDg-79" value="" style="edgeStyle=orthogonalEdgeStyle;rounded=0;orthogonalLoop=1;jettySize=auto;html=1;" edge="1" parent="2" source="_ZR7o_LOtNJtk-iY4hDg-56" target="_ZR7o_LOtNJtk-iY4hDg-78">
          <mxGeometry relative="1" as="geometry" />
        </mxCell>
        <mxCell id="_ZR7o_LOtNJtk-iY4hDg-80" value="(Yes" style="edgeLabel;html=1;align=center;verticalAlign=middle;resizable=0;points=[];" vertex="1" connectable="0" parent="_ZR7o_LOtNJtk-iY4hDg-79">
          <mxGeometry x="-0.3333" relative="1" as="geometry">
            <mxPoint as="offset" />
          </mxGeometry>
        </mxCell>
        <mxCell id="_ZR7o_LOtNJtk-iY4hDg-56" value="Log in succeded?" style="rhombus;fillColor=#ffffc0;strokeColor=#ff0000;" vertex="1" parent="2">
          <mxGeometry x="200" y="342" width="80" height="40" as="geometry" />
        </mxCell>
        <mxCell id="_ZR7o_LOtNJtk-iY4hDg-89" value="" style="edgeStyle=orthogonalEdgeStyle;rounded=0;orthogonalLoop=1;jettySize=auto;html=1;" edge="1" parent="2" source="_ZR7o_LOtNJtk-iY4hDg-78" target="_ZR7o_LOtNJtk-iY4hDg-88">
          <mxGeometry relative="1" as="geometry" />
        </mxCell>
        <mxCell id="_ZR7o_LOtNJtk-iY4hDg-145" value="Logs Out" style="edgeLabel;html=1;align=center;verticalAlign=middle;resizable=0;points=[];" vertex="1" connectable="0" parent="_ZR7o_LOtNJtk-iY4hDg-89">
          <mxGeometry x="-0.1667" y="3" relative="1" as="geometry">
            <mxPoint as="offset" />
          </mxGeometry>
        </mxCell>
        <mxCell id="_ZR7o_LOtNJtk-iY4hDg-78" value="Logs in" style="" vertex="1" parent="2">
          <mxGeometry x="185" y="432" width="110" height="50" as="geometry" />
        </mxCell>
        <mxCell id="_ZR7o_LOtNJtk-iY4hDg-88" value="" style="ellipse;shape=endState;fillColor=#000000;strokeColor=#ff0000" vertex="1" parent="2">
          <mxGeometry x="225" y="532" width="30" height="30" as="geometry" />
        </mxCell>
        <mxCell id="3" value="Server" style="swimlane;whiteSpace=wrap" parent="1" vertex="1">
          <mxGeometry x="400" y="128" width="400" height="570" as="geometry" />
        </mxCell>
        <mxCell id="_ZR7o_LOtNJtk-iY4hDg-93" value="" style="edgeStyle=orthogonalEdgeStyle;rounded=0;orthogonalLoop=1;jettySize=auto;html=1;" edge="1" parent="3" source="_ZR7o_LOtNJtk-iY4hDg-95">
          <mxGeometry relative="1" as="geometry">
            <mxPoint x="125" y="217" as="targetPoint" />
            <Array as="points">
              <mxPoint x="125" y="182" />
              <mxPoint x="126" y="182" />
              <mxPoint x="126" y="217" />
            </Array>
          </mxGeometry>
        </mxCell>
        <mxCell id="_ZR7o_LOtNJtk-iY4hDg-90" value="Recive Request" style="" vertex="1" parent="3">
          <mxGeometry x="70" y="102" width="110" height="50" as="geometry" />
        </mxCell>
        <mxCell id="_ZR7o_LOtNJtk-iY4hDg-96" value="" style="edgeStyle=orthogonalEdgeStyle;rounded=0;orthogonalLoop=1;jettySize=auto;html=1;" edge="1" parent="3" source="_ZR7o_LOtNJtk-iY4hDg-90" target="_ZR7o_LOtNJtk-iY4hDg-95">
          <mxGeometry relative="1" as="geometry">
            <mxPoint x="515" y="280" as="sourcePoint" />
            <mxPoint x="515" y="345" as="targetPoint" />
            <Array as="points" />
          </mxGeometry>
        </mxCell>
        <mxCell id="_ZR7o_LOtNJtk-iY4hDg-99" value="" style="edgeStyle=orthogonalEdgeStyle;rounded=0;orthogonalLoop=1;jettySize=auto;html=1;" edge="1" parent="3" source="_ZR7o_LOtNJtk-iY4hDg-95" target="_ZR7o_LOtNJtk-iY4hDg-98">
          <mxGeometry relative="1" as="geometry" />
        </mxCell>
        <mxCell id="_ZR7o_LOtNJtk-iY4hDg-101" value="Create an account" style="edgeLabel;html=1;align=center;verticalAlign=middle;resizable=0;points=[];" vertex="1" connectable="0" parent="_ZR7o_LOtNJtk-iY4hDg-99">
          <mxGeometry x="-0.5972" y="1" relative="1" as="geometry">
            <mxPoint as="offset" />
          </mxGeometry>
        </mxCell>
        <mxCell id="_ZR7o_LOtNJtk-iY4hDg-100" value="" style="edgeStyle=orthogonalEdgeStyle;rounded=0;orthogonalLoop=1;jettySize=auto;html=1;" edge="1" parent="3" source="_ZR7o_LOtNJtk-iY4hDg-95" target="_ZR7o_LOtNJtk-iY4hDg-97">
          <mxGeometry relative="1" as="geometry" />
        </mxCell>
        <mxCell id="_ZR7o_LOtNJtk-iY4hDg-102" value="&lt;div&gt;Log in&lt;/div&gt;" style="edgeLabel;html=1;align=center;verticalAlign=middle;resizable=0;points=[];" vertex="1" connectable="0" parent="_ZR7o_LOtNJtk-iY4hDg-100">
          <mxGeometry x="0.1493" y="1" relative="1" as="geometry">
            <mxPoint as="offset" />
          </mxGeometry>
        </mxCell>
        <mxCell id="_ZR7o_LOtNJtk-iY4hDg-95" value="Identify request&#xa;" style="rhombus;fillColor=#ffffc0;strokeColor=#ff0000;" vertex="1" parent="3">
          <mxGeometry x="85" y="192" width="80" height="38" as="geometry" />
        </mxCell>
        <mxCell id="_ZR7o_LOtNJtk-iY4hDg-110" value="" style="edgeStyle=orthogonalEdgeStyle;rounded=0;orthogonalLoop=1;jettySize=auto;html=1;" edge="1" parent="3" source="_ZR7o_LOtNJtk-iY4hDg-98" target="_ZR7o_LOtNJtk-iY4hDg-109">
          <mxGeometry relative="1" as="geometry" />
        </mxCell>
        <mxCell id="_ZR7o_LOtNJtk-iY4hDg-98" value="Verify procces details" style="" vertex="1" parent="3">
          <mxGeometry x="71" y="262" width="110" height="50" as="geometry" />
        </mxCell>
        <mxCell id="_ZR7o_LOtNJtk-iY4hDg-104" value="" style="edgeStyle=orthogonalEdgeStyle;rounded=0;orthogonalLoop=1;jettySize=auto;html=1;" edge="1" parent="3" source="_ZR7o_LOtNJtk-iY4hDg-97" target="_ZR7o_LOtNJtk-iY4hDg-103">
          <mxGeometry relative="1" as="geometry" />
        </mxCell>
        <mxCell id="_ZR7o_LOtNJtk-iY4hDg-97" value="Verify credentials" style="" vertex="1" parent="3">
          <mxGeometry x="270" y="186" width="110" height="50" as="geometry" />
        </mxCell>
        <mxCell id="_ZR7o_LOtNJtk-iY4hDg-106" value="" style="edgeStyle=orthogonalEdgeStyle;rounded=0;orthogonalLoop=1;jettySize=auto;html=1;" edge="1" parent="3" source="_ZR7o_LOtNJtk-iY4hDg-103" target="_ZR7o_LOtNJtk-iY4hDg-105">
          <mxGeometry relative="1" as="geometry" />
        </mxCell>
        <mxCell id="_ZR7o_LOtNJtk-iY4hDg-107" value="Succeded" style="edgeLabel;html=1;align=center;verticalAlign=middle;resizable=0;points=[];" vertex="1" connectable="0" parent="_ZR7o_LOtNJtk-iY4hDg-106">
          <mxGeometry x="-0.2024" relative="1" as="geometry">
            <mxPoint as="offset" />
          </mxGeometry>
        </mxCell>
        <mxCell id="_ZR7o_LOtNJtk-iY4hDg-103" value="" style="rhombus;fillColor=#ffffc0;strokeColor=#ff0000;" vertex="1" parent="3">
          <mxGeometry x="285" y="266" width="80" height="38" as="geometry" />
        </mxCell>
        <mxCell id="_ZR7o_LOtNJtk-iY4hDg-147" value="" style="edgeStyle=orthogonalEdgeStyle;rounded=0;orthogonalLoop=1;jettySize=auto;html=1;" edge="1" parent="3" source="_ZR7o_LOtNJtk-iY4hDg-105" target="_ZR7o_LOtNJtk-iY4hDg-146">
          <mxGeometry relative="1" as="geometry" />
        </mxCell>
        <mxCell id="_ZR7o_LOtNJtk-iY4hDg-105" value="Pull the info for the account" style="" vertex="1" parent="3">
          <mxGeometry x="270" y="352" width="110" height="50" as="geometry" />
        </mxCell>
        <mxCell id="_ZR7o_LOtNJtk-iY4hDg-108" value="Save the account details" style="" vertex="1" parent="3">
          <mxGeometry x="70" y="452" width="110" height="50" as="geometry" />
        </mxCell>
        <mxCell id="_ZR7o_LOtNJtk-iY4hDg-111" value="" style="edgeStyle=orthogonalEdgeStyle;rounded=0;orthogonalLoop=1;jettySize=auto;html=1;" edge="1" parent="3" source="_ZR7o_LOtNJtk-iY4hDg-109" target="_ZR7o_LOtNJtk-iY4hDg-108">
          <mxGeometry relative="1" as="geometry" />
        </mxCell>
        <mxCell id="_ZR7o_LOtNJtk-iY4hDg-112" value="(Yes)" style="edgeLabel;html=1;align=center;verticalAlign=middle;resizable=0;points=[];" vertex="1" connectable="0" parent="_ZR7o_LOtNJtk-iY4hDg-111">
          <mxGeometry x="-0.2831" y="1" relative="1" as="geometry">
            <mxPoint as="offset" />
          </mxGeometry>
        </mxCell>
        <mxCell id="_ZR7o_LOtNJtk-iY4hDg-109" value="  Verification succeded?" style="rhombus;fillColor=#ffffc0;strokeColor=#ff0000;" vertex="1" parent="3">
          <mxGeometry x="86" y="342" width="80" height="38" as="geometry" />
        </mxCell>
        <mxCell id="_ZR7o_LOtNJtk-iY4hDg-146" value="Implemts a log out mechanism" style="" vertex="1" parent="3">
          <mxGeometry x="270" y="452" width="110" height="50" as="geometry" />
        </mxCell>
        <mxCell id="4" value="User Interface" style="swimlane;whiteSpace=wrap" parent="1" vertex="1">
          <mxGeometry x="830" y="128" width="310" height="570" as="geometry" />
        </mxCell>
        <mxCell id="33" value="Display the logout button" style="" parent="4" vertex="1">
          <mxGeometry x="90" y="405" width="110" height="50" as="geometry" />
        </mxCell>
        <mxCell id="38" value="" style="ellipse;shape=endState;fillColor=#000000;strokeColor=#ff0000" parent="4" vertex="1">
          <mxGeometry x="130" y="500" width="30" height="30" as="geometry" />
        </mxCell>
        <mxCell id="39" value="" style="endArrow=open;strokeColor=#FF0000;endFill=1;rounded=0" parent="4" source="33" target="38" edge="1">
          <mxGeometry relative="1" as="geometry" />
        </mxCell>
        <mxCell id="_ZR7o_LOtNJtk-iY4hDg-123" style="edgeStyle=orthogonalEdgeStyle;rounded=0;orthogonalLoop=1;jettySize=auto;html=1;entryX=0.5;entryY=0;entryDx=0;entryDy=0;" edge="1" parent="4" source="_ZR7o_LOtNJtk-iY4hDg-113" target="_ZR7o_LOtNJtk-iY4hDg-118">
          <mxGeometry relative="1" as="geometry" />
        </mxCell>
        <mxCell id="_ZR7o_LOtNJtk-iY4hDg-126" style="edgeStyle=orthogonalEdgeStyle;rounded=0;orthogonalLoop=1;jettySize=auto;html=1;entryX=0.5;entryY=0;entryDx=0;entryDy=0;" edge="1" parent="4" source="_ZR7o_LOtNJtk-iY4hDg-113" target="_ZR7o_LOtNJtk-iY4hDg-120">
          <mxGeometry relative="1" as="geometry" />
        </mxCell>
        <mxCell id="_ZR7o_LOtNJtk-iY4hDg-128" style="edgeStyle=orthogonalEdgeStyle;rounded=0;orthogonalLoop=1;jettySize=auto;html=1;entryX=0.5;entryY=0;entryDx=0;entryDy=0;" edge="1" parent="4" source="_ZR7o_LOtNJtk-iY4hDg-113" target="_ZR7o_LOtNJtk-iY4hDg-119">
          <mxGeometry relative="1" as="geometry" />
        </mxCell>
        <mxCell id="_ZR7o_LOtNJtk-iY4hDg-140" style="edgeStyle=orthogonalEdgeStyle;rounded=0;orthogonalLoop=1;jettySize=auto;html=1;" edge="1" parent="4" source="_ZR7o_LOtNJtk-iY4hDg-113">
          <mxGeometry relative="1" as="geometry">
            <mxPoint x="290" y="372" as="targetPoint" />
          </mxGeometry>
        </mxCell>
        <mxCell id="_ZR7o_LOtNJtk-iY4hDg-113" value="Display the main page&#xa;" style="" vertex="1" parent="4">
          <mxGeometry x="90" y="62" width="110" height="50" as="geometry" />
        </mxCell>
        <mxCell id="_ZR7o_LOtNJtk-iY4hDg-118" value="Display health record page" style="" vertex="1" parent="4">
          <mxGeometry x="30" y="142" width="110" height="50" as="geometry" />
        </mxCell>
        <mxCell id="_ZR7o_LOtNJtk-iY4hDg-119" value="Display appoitment page" style="" vertex="1" parent="4">
          <mxGeometry x="90" y="212" width="110" height="50" as="geometry" />
        </mxCell>
        <mxCell id="_ZR7o_LOtNJtk-iY4hDg-120" value="Display financial page" style="" vertex="1" parent="4">
          <mxGeometry x="160" y="142" width="110" height="50" as="geometry" />
        </mxCell>
        <mxCell id="_ZR7o_LOtNJtk-iY4hDg-142" value="" style="endArrow=classic;html=1;rounded=0;" edge="1" parent="4">
          <mxGeometry width="50" height="50" relative="1" as="geometry">
            <mxPoint x="150" y="372" as="sourcePoint" />
            <mxPoint x="150" y="402" as="targetPoint" />
          </mxGeometry>
        </mxCell>
        <mxCell id="_ZR7o_LOtNJtk-iY4hDg-86" value="" style="endArrow=classic;html=1;rounded=0;entryX=0;entryY=0.5;entryDx=0;entryDy=0;" edge="1" parent="1" target="_ZR7o_LOtNJtk-iY4hDg-46">
          <mxGeometry width="50" height="50" relative="1" as="geometry">
            <mxPoint x="-80" y="413" as="sourcePoint" />
            <mxPoint x="10" y="410" as="targetPoint" />
          </mxGeometry>
        </mxCell>
        <mxCell id="_ZR7o_LOtNJtk-iY4hDg-114" style="edgeStyle=orthogonalEdgeStyle;rounded=0;orthogonalLoop=1;jettySize=auto;html=1;entryX=0;entryY=0.5;entryDx=0;entryDy=0;" edge="1" parent="1" source="_ZR7o_LOtNJtk-iY4hDg-105" target="_ZR7o_LOtNJtk-iY4hDg-113">
          <mxGeometry relative="1" as="geometry">
            <Array as="points">
              <mxPoint x="850" y="505" />
              <mxPoint x="850" y="215" />
            </Array>
          </mxGeometry>
        </mxCell>
        <mxCell id="_ZR7o_LOtNJtk-iY4hDg-130" style="edgeStyle=orthogonalEdgeStyle;rounded=0;orthogonalLoop=1;jettySize=auto;html=1;entryX=0;entryY=0.5;entryDx=0;entryDy=0;" edge="1" parent="1" source="_ZR7o_LOtNJtk-iY4hDg-50" target="_ZR7o_LOtNJtk-iY4hDg-90">
          <mxGeometry relative="1" as="geometry" />
        </mxCell>
        <mxCell id="_ZR7o_LOtNJtk-iY4hDg-135" value="" style="endArrow=none;html=1;rounded=0;" edge="1" parent="1">
          <mxGeometry width="50" height="50" relative="1" as="geometry">
            <mxPoint x="180" y="360" as="sourcePoint" />
            <mxPoint x="440" y="360" as="targetPoint" />
            <Array as="points">
              <mxPoint x="270" y="360" />
            </Array>
          </mxGeometry>
        </mxCell>
        <mxCell id="_ZR7o_LOtNJtk-iY4hDg-138" value="" style="endArrow=none;html=1;rounded=0;" edge="1" parent="1">
          <mxGeometry width="50" height="50" relative="1" as="geometry">
            <mxPoint x="440" y="360" as="sourcePoint" />
            <mxPoint x="440" y="270" as="targetPoint" />
          </mxGeometry>
        </mxCell>
        <mxCell id="_ZR7o_LOtNJtk-iY4hDg-139" value="" style="endArrow=classic;html=1;rounded=0;entryX=0.01;entryY=0.817;entryDx=0;entryDy=0;entryPerimeter=0;" edge="1" parent="1" target="_ZR7o_LOtNJtk-iY4hDg-90">
          <mxGeometry width="50" height="50" relative="1" as="geometry">
            <mxPoint x="440" y="270" as="sourcePoint" />
            <mxPoint x="380" y="290" as="targetPoint" />
          </mxGeometry>
        </mxCell>
        <mxCell id="_ZR7o_LOtNJtk-iY4hDg-144" value="" style="endArrow=none;html=1;rounded=0;" edge="1" parent="1">
          <mxGeometry width="50" height="50" relative="1" as="geometry">
            <mxPoint x="980" y="500" as="sourcePoint" />
            <mxPoint x="1120" y="500" as="targetPoint" />
          </mxGeometry>
        </mxCell>
        <mxCell id="_ZR7o_LOtNJtk-iY4hDg-150" value="" style="endArrow=classic;html=1;rounded=0;entryX=1;entryY=0.5;entryDx=0;entryDy=0;" edge="1" parent="1" target="_ZR7o_LOtNJtk-iY4hDg-88">
          <mxGeometry width="50" height="50" relative="1" as="geometry">
            <mxPoint x="720" y="675" as="sourcePoint" />
            <mxPoint x="430" y="530" as="targetPoint" />
          </mxGeometry>
        </mxCell>
        <mxCell id="_ZR7o_LOtNJtk-iY4hDg-153" value="" style="endArrow=none;html=1;rounded=0;entryX=0.449;entryY=1.006;entryDx=0;entryDy=0;entryPerimeter=0;" edge="1" parent="1" target="_ZR7o_LOtNJtk-iY4hDg-146">
          <mxGeometry width="50" height="50" relative="1" as="geometry">
            <mxPoint x="720" y="680" as="sourcePoint" />
            <mxPoint x="720" y="650" as="targetPoint" />
          </mxGeometry>
        </mxCell>
      </root>
    </mxGraphModel>
  </diagram>
</mxfile>
